<mxfile host="diagram.qzrok.cn" modified="2020-10-29T04:56:15.754Z" agent="Mozilla/5.0 (Windows NT 10.0; Win64; x64) AppleWebKit/537.36 (KHTML, like Gecko) Chrome/86.0.4240.111 Safari/537.36" etag="_3aPLPiSnbcWAKS2yFDs" version="12.9.3" type="github">
  <diagram id="GURehOPzaELDxNWefYv2" name="第 1 页">
    <mxGraphModel dx="1422" dy="737" grid="0" gridSize="10" guides="1" tooltips="1" connect="1" arrows="1" fold="1" page="0" pageScale="1" pageWidth="827" pageHeight="1169" math="0" shadow="0">
      <root>
        <mxCell id="0" />
        <mxCell id="1" parent="0" />
        <mxCell id="2d70hu0ODLxBEcMr88J4-11" value="" style="group" vertex="1" connectable="0" parent="1">
          <mxGeometry x="10" y="320" width="130" height="370" as="geometry" />
        </mxCell>
        <mxCell id="EontonIsWMsEiqyyIHZb-103" value="" style="rounded=0;whiteSpace=wrap;html=1;dashed=1;fillColor=none;strokeColor=#808080;" parent="2d70hu0ODLxBEcMr88J4-11" vertex="1">
          <mxGeometry width="130" height="370" as="geometry" />
        </mxCell>
        <mxCell id="EontonIsWMsEiqyyIHZb-105" value="&lt;div style=&quot;text-align: left&quot;&gt;&lt;span style=&quot;white-space: pre-wrap&quot;&gt;&lt;font face=&quot;simsun&quot;&gt;Jenkins&lt;/font&gt;&lt;/span&gt;&lt;/div&gt;" style="rounded=0;whiteSpace=wrap;html=1;fillColor=#dae8fc;strokeColor=#6c8ebf;" parent="2d70hu0ODLxBEcMr88J4-11" vertex="1">
          <mxGeometry x="25" y="41.774193548387096" width="80" height="39.784946236559136" as="geometry" />
        </mxCell>
        <mxCell id="EontonIsWMsEiqyyIHZb-106" value="&lt;div style=&quot;text-align: left&quot;&gt;&lt;span style=&quot;white-space: pre-wrap&quot;&gt;&lt;font face=&quot;simsun&quot;&gt;gitlab&lt;/font&gt;&lt;/span&gt;&lt;/div&gt;" style="rounded=0;whiteSpace=wrap;html=1;fillColor=#dae8fc;strokeColor=#6c8ebf;" parent="2d70hu0ODLxBEcMr88J4-11" vertex="1">
          <mxGeometry x="25" y="181.0215053763441" width="80" height="39.784946236559136" as="geometry" />
        </mxCell>
        <mxCell id="EontonIsWMsEiqyyIHZb-107" value="&lt;div style=&quot;text-align: left&quot;&gt;&lt;font face=&quot;simsun&quot;&gt;&lt;span style=&quot;white-space: pre-wrap&quot;&gt;sonarqube&lt;/span&gt;&lt;/font&gt;&lt;/div&gt;" style="rounded=0;whiteSpace=wrap;html=1;fillColor=#dae8fc;strokeColor=#6c8ebf;" parent="2d70hu0ODLxBEcMr88J4-11" vertex="1">
          <mxGeometry x="25" y="111.3978494623656" width="80" height="39.784946236559136" as="geometry" />
        </mxCell>
        <mxCell id="EontonIsWMsEiqyyIHZb-108" value="&lt;div style=&quot;text-align: left&quot;&gt;&lt;span style=&quot;white-space: pre-wrap&quot;&gt;&lt;font face=&quot;simsun&quot;&gt;docker&lt;/font&gt;&lt;/span&gt;&lt;/div&gt;" style="rounded=0;whiteSpace=wrap;html=1;fillColor=#dae8fc;strokeColor=#6c8ebf;" parent="2d70hu0ODLxBEcMr88J4-11" vertex="1">
          <mxGeometry x="25" y="250.6451612903226" width="80" height="39.784946236559136" as="geometry" />
        </mxCell>
        <mxCell id="EontonIsWMsEiqyyIHZb-104" value="DevOps" style="text;html=1;strokeColor=none;fillColor=#FFE599;align=center;verticalAlign=middle;whiteSpace=wrap;rounded=0;dashed=1;fontColor=#2200FF;" parent="2d70hu0ODLxBEcMr88J4-11" vertex="1">
          <mxGeometry width="70" height="20" as="geometry" />
        </mxCell>
        <mxCell id="EontonIsWMsEiqyyIHZb-47" value="" style="group" parent="1" vertex="1" connectable="0">
          <mxGeometry x="157" y="320" width="520" height="180" as="geometry" />
        </mxCell>
        <mxCell id="EontonIsWMsEiqyyIHZb-34" value="" style="rounded=0;whiteSpace=wrap;html=1;dashed=1;fillColor=none;strokeColor=#808080;" parent="EontonIsWMsEiqyyIHZb-47" vertex="1">
          <mxGeometry width="520" height="180" as="geometry" />
        </mxCell>
        <mxCell id="EontonIsWMsEiqyyIHZb-20" value="商品服务" style="rounded=0;whiteSpace=wrap;html=1;fillColor=#e1d5e7;strokeColor=#9673a6;" parent="EontonIsWMsEiqyyIHZb-47" vertex="1">
          <mxGeometry x="50" y="25" width="80" height="40" as="geometry" />
        </mxCell>
        <mxCell id="EontonIsWMsEiqyyIHZb-21" value="门店服务" style="rounded=0;whiteSpace=wrap;html=1;fillColor=#e1d5e7;strokeColor=#9673a6;" parent="EontonIsWMsEiqyyIHZb-47" vertex="1">
          <mxGeometry x="163" y="25" width="80" height="40" as="geometry" />
        </mxCell>
        <mxCell id="EontonIsWMsEiqyyIHZb-22" value="用户服务" style="rounded=0;whiteSpace=wrap;html=1;fillColor=#e1d5e7;strokeColor=#9673a6;" parent="EontonIsWMsEiqyyIHZb-47" vertex="1">
          <mxGeometry x="277" y="25" width="80" height="40" as="geometry" />
        </mxCell>
        <mxCell id="EontonIsWMsEiqyyIHZb-23" value="销售服务" style="rounded=0;whiteSpace=wrap;html=1;fillColor=#e1d5e7;strokeColor=#9673a6;" parent="EontonIsWMsEiqyyIHZb-47" vertex="1">
          <mxGeometry x="390" y="25" width="80" height="40" as="geometry" />
        </mxCell>
        <mxCell id="EontonIsWMsEiqyyIHZb-24" value="打印服务" style="rounded=0;whiteSpace=wrap;html=1;fillColor=#e1d5e7;strokeColor=#9673a6;" parent="EontonIsWMsEiqyyIHZb-47" vertex="1">
          <mxGeometry x="50" y="115" width="80" height="40" as="geometry" />
        </mxCell>
        <mxCell id="EontonIsWMsEiqyyIHZb-26" value="文件服务&lt;br&gt;" style="rounded=0;whiteSpace=wrap;html=1;fillColor=#e1d5e7;strokeColor=#9673a6;" parent="EontonIsWMsEiqyyIHZb-47" vertex="1">
          <mxGeometry x="163" y="115" width="80" height="40" as="geometry" />
        </mxCell>
        <mxCell id="EontonIsWMsEiqyyIHZb-27" value="支付服务" style="rounded=0;whiteSpace=wrap;html=1;fillColor=#e1d5e7;strokeColor=#9673a6;" parent="EontonIsWMsEiqyyIHZb-47" vertex="1">
          <mxGeometry x="277" y="115" width="80" height="40" as="geometry" />
        </mxCell>
        <mxCell id="EontonIsWMsEiqyyIHZb-28" value="......" style="rounded=0;whiteSpace=wrap;html=1;fillColor=#e1d5e7;strokeColor=#9673a6;" parent="EontonIsWMsEiqyyIHZb-47" vertex="1">
          <mxGeometry x="390" y="115" width="80" height="40" as="geometry" />
        </mxCell>
        <mxCell id="EontonIsWMsEiqyyIHZb-36" value="" style="endArrow=none;html=1;strokeColor=#90C771;fillColor=#d5e8d4;exitX=0.5;exitY=0;exitDx=0;exitDy=0;entryX=0.5;entryY=1;entryDx=0;entryDy=0;" parent="EontonIsWMsEiqyyIHZb-47" source="EontonIsWMsEiqyyIHZb-24" target="EontonIsWMsEiqyyIHZb-20" edge="1">
          <mxGeometry width="50" height="50" relative="1" as="geometry">
            <mxPoint x="40" y="129" as="sourcePoint" />
            <mxPoint x="90" y="79" as="targetPoint" />
          </mxGeometry>
        </mxCell>
        <mxCell id="EontonIsWMsEiqyyIHZb-37" value="" style="endArrow=none;html=1;strokeColor=#90C771;fillColor=#d5e8d4;exitX=0.5;exitY=0;exitDx=0;exitDy=0;entryX=0.5;entryY=1;entryDx=0;entryDy=0;" parent="EontonIsWMsEiqyyIHZb-47" source="EontonIsWMsEiqyyIHZb-26" target="EontonIsWMsEiqyyIHZb-20" edge="1">
          <mxGeometry width="50" height="50" relative="1" as="geometry">
            <mxPoint x="100" y="125" as="sourcePoint" />
            <mxPoint x="100" y="89" as="targetPoint" />
          </mxGeometry>
        </mxCell>
        <mxCell id="EontonIsWMsEiqyyIHZb-38" value="" style="endArrow=none;html=1;strokeColor=#90C771;fillColor=#d5e8d4;exitX=0.5;exitY=1;exitDx=0;exitDy=0;entryX=0.5;entryY=0;entryDx=0;entryDy=0;" parent="EontonIsWMsEiqyyIHZb-47" source="EontonIsWMsEiqyyIHZb-23" target="EontonIsWMsEiqyyIHZb-27" edge="1">
          <mxGeometry width="50" height="50" relative="1" as="geometry">
            <mxPoint x="213" y="125" as="sourcePoint" />
            <mxPoint x="100" y="89" as="targetPoint" />
          </mxGeometry>
        </mxCell>
        <mxCell id="EontonIsWMsEiqyyIHZb-39" value="" style="endArrow=none;html=1;strokeColor=#90C771;fillColor=#d5e8d4;exitX=0;exitY=0.5;exitDx=0;exitDy=0;entryX=1;entryY=0.5;entryDx=0;entryDy=0;" parent="EontonIsWMsEiqyyIHZb-47" source="EontonIsWMsEiqyyIHZb-22" target="EontonIsWMsEiqyyIHZb-21" edge="1">
          <mxGeometry width="50" height="50" relative="1" as="geometry">
            <mxPoint x="440" y="75" as="sourcePoint" />
            <mxPoint x="327" y="111" as="targetPoint" />
          </mxGeometry>
        </mxCell>
        <mxCell id="EontonIsWMsEiqyyIHZb-40" value="" style="endArrow=none;html=1;strokeColor=#90C771;fillColor=#d5e8d4;entryX=0.5;entryY=0;entryDx=0;entryDy=0;exitX=0.5;exitY=1;exitDx=0;exitDy=0;" parent="EontonIsWMsEiqyyIHZb-47" source="EontonIsWMsEiqyyIHZb-21" target="EontonIsWMsEiqyyIHZb-24" edge="1">
          <mxGeometry width="50" height="50" relative="1" as="geometry">
            <mxPoint x="440" y="89" as="sourcePoint" />
            <mxPoint x="327" y="125" as="targetPoint" />
          </mxGeometry>
        </mxCell>
        <mxCell id="EontonIsWMsEiqyyIHZb-41" value="" style="endArrow=none;html=1;strokeColor=#90C771;fillColor=#d5e8d4;entryX=0;entryY=0.5;entryDx=0;entryDy=0;exitX=1;exitY=0.5;exitDx=0;exitDy=0;" parent="EontonIsWMsEiqyyIHZb-47" source="EontonIsWMsEiqyyIHZb-20" target="EontonIsWMsEiqyyIHZb-21" edge="1">
          <mxGeometry width="50" height="50" relative="1" as="geometry">
            <mxPoint x="287" y="67.33480176211447" as="sourcePoint" />
            <mxPoint x="100" y="125" as="targetPoint" />
          </mxGeometry>
        </mxCell>
        <mxCell id="EontonIsWMsEiqyyIHZb-42" value="" style="endArrow=none;html=1;strokeColor=#90C771;fillColor=#d5e8d4;entryX=0.5;entryY=0;entryDx=0;entryDy=0;exitX=0.5;exitY=1;exitDx=0;exitDy=0;" parent="EontonIsWMsEiqyyIHZb-47" source="EontonIsWMsEiqyyIHZb-22" target="EontonIsWMsEiqyyIHZb-27" edge="1">
          <mxGeometry width="50" height="50" relative="1" as="geometry">
            <mxPoint x="287" y="67.33480176211447" as="sourcePoint" />
            <mxPoint x="100" y="125" as="targetPoint" />
          </mxGeometry>
        </mxCell>
        <mxCell id="EontonIsWMsEiqyyIHZb-43" value="" style="endArrow=none;html=1;strokeColor=#90C771;fillColor=#d5e8d4;exitX=0.5;exitY=1;exitDx=0;exitDy=0;" parent="EontonIsWMsEiqyyIHZb-47" source="EontonIsWMsEiqyyIHZb-21" target="EontonIsWMsEiqyyIHZb-26" edge="1">
          <mxGeometry width="50" height="50" relative="1" as="geometry">
            <mxPoint x="327" y="75" as="sourcePoint" />
            <mxPoint x="327" y="125" as="targetPoint" />
          </mxGeometry>
        </mxCell>
        <mxCell id="EontonIsWMsEiqyyIHZb-44" value="" style="endArrow=none;html=1;strokeColor=#90C771;fillColor=#d5e8d4;entryX=0.5;entryY=0;entryDx=0;entryDy=0;exitX=0.5;exitY=1;exitDx=0;exitDy=0;" parent="EontonIsWMsEiqyyIHZb-47" source="EontonIsWMsEiqyyIHZb-21" target="EontonIsWMsEiqyyIHZb-27" edge="1">
          <mxGeometry width="50" height="50" relative="1" as="geometry">
            <mxPoint x="327" y="75" as="sourcePoint" />
            <mxPoint x="100" y="125" as="targetPoint" />
          </mxGeometry>
        </mxCell>
        <mxCell id="EontonIsWMsEiqyyIHZb-45" value="" style="endArrow=none;html=1;strokeColor=#90C771;fillColor=#d5e8d4;entryX=0.413;entryY=0.025;entryDx=0;entryDy=0;entryPerimeter=0;exitX=0.5;exitY=1;exitDx=0;exitDy=0;" parent="EontonIsWMsEiqyyIHZb-47" source="EontonIsWMsEiqyyIHZb-22" target="EontonIsWMsEiqyyIHZb-26" edge="1">
          <mxGeometry width="50" height="50" relative="1" as="geometry">
            <mxPoint x="320" y="69" as="sourcePoint" />
            <mxPoint x="327" y="125" as="targetPoint" />
          </mxGeometry>
        </mxCell>
        <mxCell id="EontonIsWMsEiqyyIHZb-46" value="" style="endArrow=none;html=1;strokeColor=#90C771;fillColor=#d5e8d4;exitX=1;exitY=0.5;exitDx=0;exitDy=0;entryX=0;entryY=0.5;entryDx=0;entryDy=0;" parent="EontonIsWMsEiqyyIHZb-47" source="EontonIsWMsEiqyyIHZb-22" target="EontonIsWMsEiqyyIHZb-23" edge="1">
          <mxGeometry width="50" height="50" relative="1" as="geometry">
            <mxPoint x="440" y="75" as="sourcePoint" />
            <mxPoint x="327" y="125" as="targetPoint" />
          </mxGeometry>
        </mxCell>
        <mxCell id="EontonIsWMsEiqyyIHZb-81" value="业务服务" style="text;html=1;strokeColor=none;fillColor=#FFE599;align=center;verticalAlign=middle;whiteSpace=wrap;rounded=0;dashed=1;fontColor=#2200FF;" parent="EontonIsWMsEiqyyIHZb-47" vertex="1">
          <mxGeometry y="1" width="60" height="20" as="geometry" />
        </mxCell>
        <mxCell id="2d70hu0ODLxBEcMr88J4-9" value="" style="group" vertex="1" connectable="0" parent="1">
          <mxGeometry x="158" y="514" width="520" height="91" as="geometry" />
        </mxCell>
        <mxCell id="EontonIsWMsEiqyyIHZb-79" value="" style="rounded=0;whiteSpace=wrap;html=1;dashed=1;fillColor=none;strokeColor=#808080;" parent="2d70hu0ODLxBEcMr88J4-9" vertex="1">
          <mxGeometry width="520" height="91" as="geometry" />
        </mxCell>
        <mxCell id="EontonIsWMsEiqyyIHZb-29" value="注册中心" style="rounded=0;whiteSpace=wrap;html=1;fillColor=#d5e8d4;strokeColor=#82b366;" parent="2d70hu0ODLxBEcMr88J4-9" vertex="1">
          <mxGeometry x="106" y="31" width="80" height="40" as="geometry" />
        </mxCell>
        <mxCell id="EontonIsWMsEiqyyIHZb-30" value="网关" style="rounded=0;whiteSpace=wrap;html=1;fillColor=#d5e8d4;strokeColor=#82b366;" parent="2d70hu0ODLxBEcMr88J4-9" vertex="1">
          <mxGeometry x="10" y="31" width="80" height="40" as="geometry" />
        </mxCell>
        <mxCell id="EontonIsWMsEiqyyIHZb-31" value="认证中心" style="rounded=0;whiteSpace=wrap;html=1;fillColor=#d5e8d4;strokeColor=#82b366;" parent="2d70hu0ODLxBEcMr88J4-9" vertex="1">
          <mxGeometry x="208" y="30" width="80" height="40" as="geometry" />
        </mxCell>
        <mxCell id="EontonIsWMsEiqyyIHZb-80" value="微服务组件" style="text;html=1;strokeColor=none;fillColor=#FFE599;align=center;verticalAlign=middle;whiteSpace=wrap;rounded=0;dashed=1;fontColor=#2200FF;" parent="2d70hu0ODLxBEcMr88J4-9" vertex="1">
          <mxGeometry width="69" height="20" as="geometry" />
        </mxCell>
        <mxCell id="2d70hu0ODLxBEcMr88J4-8" value="配置中心" style="rounded=0;whiteSpace=wrap;html=1;fillColor=#d5e8d4;strokeColor=#82b366;dashed=1;" vertex="1" parent="2d70hu0ODLxBEcMr88J4-9">
          <mxGeometry x="304" y="30" width="80" height="40" as="geometry" />
        </mxCell>
        <mxCell id="2d70hu0ODLxBEcMr88J4-10" value="" style="group" vertex="1" connectable="0" parent="1">
          <mxGeometry x="159" y="614" width="520" height="76" as="geometry" />
        </mxCell>
        <mxCell id="2d70hu0ODLxBEcMr88J4-2" value="" style="rounded=0;whiteSpace=wrap;html=1;dashed=1;fillColor=none;strokeColor=#808080;" vertex="1" parent="2d70hu0ODLxBEcMr88J4-10">
          <mxGeometry width="520" height="76" as="geometry" />
        </mxCell>
        <mxCell id="2d70hu0ODLxBEcMr88J4-3" value="工&amp;nbsp; &amp;nbsp;具" style="rounded=0;whiteSpace=wrap;html=1;fillColor=#ffe6cc;strokeColor=#d79b00;" vertex="1" parent="2d70hu0ODLxBEcMr88J4-10">
          <mxGeometry x="108" y="26" width="80" height="40" as="geometry" />
        </mxCell>
        <mxCell id="2d70hu0ODLxBEcMr88J4-4" value="基础组件" style="rounded=0;whiteSpace=wrap;html=1;fillColor=#ffe6cc;strokeColor=#d79b00;" vertex="1" parent="2d70hu0ODLxBEcMr88J4-10">
          <mxGeometry x="12" y="26" width="80" height="40" as="geometry" />
        </mxCell>
        <mxCell id="2d70hu0ODLxBEcMr88J4-6" value="基础组件" style="text;html=1;strokeColor=none;fillColor=#FFE599;align=center;verticalAlign=middle;whiteSpace=wrap;rounded=0;dashed=1;fontColor=#2200FF;" vertex="1" parent="2d70hu0ODLxBEcMr88J4-10">
          <mxGeometry width="62" height="20" as="geometry" />
        </mxCell>
        <mxCell id="EontonIsWMsEiqyyIHZb-100" value="监控服务" style="text;html=1;strokeColor=none;fillColor=#FFE599;align=center;verticalAlign=middle;whiteSpace=wrap;rounded=0;dashed=1;fontColor=#2200FF;" parent="1" vertex="1">
          <mxGeometry x="700" y="318" width="70" height="20" as="geometry" />
        </mxCell>
        <mxCell id="2d70hu0ODLxBEcMr88J4-12" value="" style="group" vertex="1" connectable="0" parent="1">
          <mxGeometry x="700" y="318" width="130" height="372" as="geometry" />
        </mxCell>
        <mxCell id="EontonIsWMsEiqyyIHZb-95" value="" style="rounded=0;whiteSpace=wrap;html=1;dashed=1;fillColor=none;strokeColor=#808080;" parent="2d70hu0ODLxBEcMr88J4-12" vertex="1">
          <mxGeometry width="130" height="372" as="geometry" />
        </mxCell>
        <mxCell id="EontonIsWMsEiqyyIHZb-89" value="&lt;span style=&quot;font-family: &amp;#34;simsun&amp;#34; ; text-align: left ; white-space: pre-wrap&quot;&gt;ELK + F&lt;/span&gt;" style="rounded=0;whiteSpace=wrap;html=1;fillColor=#f8cecc;strokeColor=#b85450;" parent="2d70hu0ODLxBEcMr88J4-12" vertex="1">
          <mxGeometry x="25" y="43" width="80" height="40" as="geometry" />
        </mxCell>
        <mxCell id="EontonIsWMsEiqyyIHZb-90" value="&lt;span style=&quot;font-family: &amp;#34;simsun&amp;#34; ; text-align: left ; white-space: pre-wrap&quot;&gt;prometheus&lt;/span&gt;" style="rounded=0;whiteSpace=wrap;html=1;fillColor=#f8cecc;strokeColor=#b85450;" parent="2d70hu0ODLxBEcMr88J4-12" vertex="1">
          <mxGeometry x="25" y="111" width="80" height="40" as="geometry" />
        </mxCell>
        <mxCell id="EontonIsWMsEiqyyIHZb-91" value="&lt;span style=&quot;font-family: &amp;#34;simsun&amp;#34; ; text-align: left ; white-space: pre-wrap&quot;&gt;skywalking&lt;/span&gt;" style="rounded=0;whiteSpace=wrap;html=1;fillColor=#f8cecc;strokeColor=#b85450;" parent="2d70hu0ODLxBEcMr88J4-12" vertex="1">
          <mxGeometry x="25" y="180" width="80" height="40" as="geometry" />
        </mxCell>
        <mxCell id="EontonIsWMsEiqyyIHZb-92" value="&lt;span style=&quot;font-family: &amp;#34;simsun&amp;#34; ; text-align: left ; white-space: pre-wrap&quot;&gt;grafana&lt;/span&gt;" style="rounded=0;whiteSpace=wrap;html=1;fillColor=#f8cecc;strokeColor=#b85450;" parent="2d70hu0ODLxBEcMr88J4-12" vertex="1">
          <mxGeometry x="25" y="248" width="80" height="40" as="geometry" />
        </mxCell>
      </root>
    </mxGraphModel>
  </diagram>
</mxfile>
